<svg width="87" height="53" viewBox="0 0 87 53" fill="none" xmlns="http://www.w3.org/2000/svg">
<path d="M19.2743 40.096C19.2743 44.096 18.2983 47.152 16.3463 49.264C14.4263 51.408 11.6423 52.48 7.99425 52.48C5.53025 52.48 3.61025 52.016 2.23425 51.088C0.826251 50.192 0.122251 49.072 0.122251 47.728C0.122251 46.928 0.394251 46.304 0.938251 45.856C1.45025 45.44 2.04225 45.232 2.71425 45.232C3.61025 45.232 4.28225 45.472 4.73025 45.952C5.17825 46.464 5.57825 47.008 5.93025 47.584C6.28225 48.16 6.68225 48.688 7.13025 49.168C7.54625 49.68 8.18625 49.936 9.05025 49.936C10.2343 49.936 11.1143 49.472 11.6903 48.544C12.2983 47.616 12.6023 46.016 12.6023 43.744V26.08C12.6023 24.32 12.5543 22.88 12.4583 21.76C12.3943 20.64 12.3143 19.872 12.2183 19.456C12.0583 18.72 11.7063 18.224 11.1623 17.968C10.6183 17.68 9.61025 17.536 8.13825 17.536V15.904L19.2743 14.08V40.096ZM12.2183 3.904C12.2183 2.848 12.5703 1.968 13.2743 1.264C14.0103 0.527998 14.8903 0.159998 15.9143 0.159998C16.9703 0.159998 17.8503 0.527998 18.5543 1.264C19.2903 1.968 19.6583 2.848 19.6583 3.904C19.6583 4.928 19.2903 5.808 18.5543 6.544C17.8503 7.248 16.9703 7.6 15.9143 7.6C14.8903 7.6 14.0103 7.248 13.2743 6.544C12.5703 5.808 12.2183 4.928 12.2183 3.904ZM41.9809 38.08C43.0049 38.08 43.7249 38.048 44.1409 37.984C44.5569 37.888 44.7649 37.712 44.7649 37.456C44.7649 37.264 44.5409 36.8 44.0929 36.064C43.6769 35.296 43.1329 34.416 42.4609 33.424L38.8129 27.952L36.4129 30.256V32.128C36.4129 33.376 36.4609 34.384 36.5569 35.152C36.6529 35.92 36.8129 36.528 37.0369 36.976C37.2929 37.392 37.6289 37.68 38.0449 37.84C38.4929 38 39.0529 38.08 39.7249 38.08V40H25.5649V38.08C26.4609 38.048 27.1809 37.952 27.7249 37.792C28.2689 37.632 28.7009 37.36 29.0209 36.976C29.3409 36.56 29.5489 36 29.6449 35.296C29.7729 34.56 29.8369 33.616 29.8369 32.464V12.112C29.8369 10.16 29.8049 8.624 29.7409 7.504C29.6769 6.384 29.5009 5.552 29.2129 5.008C28.9569 4.432 28.5409 4.08 27.9649 3.952C27.4209 3.824 26.6689 3.76 25.7089 3.76V1.984L36.4129 0.159998V26.848L41.0209 22.48C42.6849 20.912 43.8689 19.744 44.5729 18.976C45.2769 18.176 45.6289 17.6 45.6289 17.248C45.6289 16.96 45.3249 16.768 44.7169 16.672C44.1409 16.544 43.0529 16.48 41.4529 16.48V14.56H54.5569V16.48C53.3409 16.48 52.2689 16.688 51.3409 17.104C50.4129 17.52 49.4049 18.24 48.3169 19.264L43.6609 23.632L51.9649 35.392C52.7009 36.416 53.4209 37.12 54.1249 37.504C54.8289 37.888 55.7569 38.08 56.9089 38.08V40H41.9809V38.08ZM72.5903 14.08C74.5103 14.08 76.3183 14.416 78.0143 15.088C79.7423 15.728 81.2463 16.624 82.5263 17.776C83.8383 18.928 84.8623 20.304 85.5983 21.904C86.3663 23.472 86.7503 25.2 86.7503 27.088C86.7503 29.04 86.3663 30.832 85.5983 32.464C84.8623 34.096 83.8383 35.504 82.5263 36.688C81.2463 37.872 79.7423 38.8 78.0143 39.472C76.3183 40.144 74.5103 40.48 72.5903 40.48C70.7023 40.48 68.9103 40.16 67.2143 39.52C65.5183 38.848 64.0303 37.92 62.7503 36.736C61.4703 35.552 60.4623 34.144 59.7263 32.512C58.9903 30.848 58.6223 29.04 58.6223 27.088C58.6223 25.2 58.9903 23.456 59.7263 21.856C60.4623 20.256 61.4703 18.88 62.7503 17.728C64.0303 16.576 65.5183 15.68 67.2143 15.04C68.9103 14.4 70.7023 14.08 72.5903 14.08ZM72.5903 16.864C71.6303 16.864 70.7503 17.12 69.9503 17.632C69.1503 18.112 68.4623 18.8 67.8863 19.696C67.3423 20.592 66.9103 21.68 66.5903 22.96C66.3023 24.208 66.1583 25.6 66.1583 27.136C66.1583 28.736 66.3023 30.176 66.5903 31.456C66.9103 32.736 67.3423 33.824 67.8863 34.72C68.4623 35.616 69.1343 36.32 69.9023 36.832C70.7023 37.312 71.5983 37.552 72.5903 37.552C73.5823 37.552 74.4783 37.312 75.2783 36.832C76.1103 36.32 76.8143 35.616 77.3903 34.72C77.9663 33.792 78.4143 32.688 78.7343 31.408C79.0543 30.128 79.2143 28.704 79.2143 27.136C79.2143 25.6 79.0543 24.208 78.7343 22.96C78.4143 21.712 77.9663 20.64 77.3903 19.744C76.8143 18.816 76.1103 18.112 75.2783 17.632C74.4783 17.12 73.5823 16.864 72.5903 16.864Z" fill="black"/>
</svg>
