<svg width="44" height="27" viewBox="0 0 44 27" fill="none" xmlns="http://www.w3.org/2000/svg">
<path d="M9.63712 20.048C9.63712 22.048 9.14912 23.576 8.17312 24.632C7.21312 25.704 5.82112 26.24 3.99712 26.24C2.76512 26.24 1.80512 26.008 1.11712 25.544C0.413124 25.096 0.0611235 24.536 0.0611235 23.864C0.0611235 23.464 0.197124 23.152 0.469124 22.928C0.725124 22.72 1.02112 22.616 1.35712 22.616C1.80512 22.616 2.14112 22.736 2.36512 22.976C2.58912 23.232 2.78912 23.504 2.96512 23.792C3.14112 24.08 3.34112 24.344 3.56512 24.584C3.77312 24.84 4.09312 24.968 4.52512 24.968C5.11712 24.968 5.55712 24.736 5.84512 24.272C6.14912 23.808 6.30112 23.008 6.30112 21.872V13.04C6.30112 12.16 6.27712 11.44 6.22912 10.88C6.19712 10.32 6.15712 9.936 6.10912 9.728C6.02912 9.36 5.85312 9.112 5.58112 8.984C5.30912 8.84 4.80512 8.768 4.06912 8.768V7.952L9.63712 7.04V20.048ZM6.10912 1.952C6.10912 1.424 6.28512 0.983999 6.63712 0.631999C7.00512 0.263999 7.44512 0.079999 7.95712 0.079999C8.48512 0.079999 8.92512 0.263999 9.27712 0.631999C9.64512 0.983999 9.82912 1.424 9.82912 1.952C9.82912 2.464 9.64512 2.904 9.27712 3.272C8.92512 3.624 8.48512 3.8 7.95712 3.8C7.44512 3.8 7.00512 3.624 6.63712 3.272C6.28512 2.904 6.10912 2.464 6.10912 1.952ZM20.9904 19.04C21.5024 19.04 21.8624 19.024 22.0704 18.992C22.2784 18.944 22.3824 18.856 22.3824 18.728C22.3824 18.632 22.2704 18.4 22.0464 18.032C21.8384 17.648 21.5664 17.208 21.2304 16.712L19.4064 13.976L18.2064 15.128V16.064C18.2064 16.688 18.2304 17.192 18.2784 17.576C18.3264 17.96 18.4064 18.264 18.5184 18.488C18.6464 18.696 18.8144 18.84 19.0224 18.92C19.2464 19 19.5264 19.04 19.8624 19.04V20H12.7824V19.04C13.2304 19.024 13.5904 18.976 13.8624 18.896C14.1344 18.816 14.3504 18.68 14.5104 18.488C14.6704 18.28 14.7744 18 14.8224 17.648C14.8864 17.28 14.9184 16.808 14.9184 16.232V6.056C14.9184 5.08 14.9024 4.312 14.8704 3.752C14.8384 3.192 14.7504 2.776 14.6064 2.504C14.4784 2.216 14.2704 2.04 13.9824 1.976C13.7104 1.912 13.3344 1.88 12.8544 1.88V0.991999L18.2064 0.079999V13.424L20.5104 11.24C21.3424 10.456 21.9344 9.872 22.2864 9.488C22.6384 9.088 22.8144 8.8 22.8144 8.624C22.8144 8.48 22.6624 8.384 22.3584 8.336C22.0704 8.272 21.5264 8.24 20.7264 8.24V7.28H27.2784V8.24C26.6704 8.24 26.1344 8.344 25.6704 8.552C25.2064 8.76 24.7024 9.12 24.1584 9.632L21.8304 11.816L25.9824 17.696C26.3504 18.208 26.7104 18.56 27.0624 18.752C27.4144 18.944 27.8784 19.04 28.4544 19.04V20H20.9904V19.04ZM36.2951 7.04C37.2551 7.04 38.1591 7.208 39.0071 7.544C39.8711 7.864 40.6231 8.312 41.2631 8.888C41.9191 9.464 42.4311 10.152 42.7991 10.952C43.1831 11.736 43.3751 12.6 43.3751 13.544C43.3751 14.52 43.1831 15.416 42.7991 16.232C42.4311 17.048 41.9191 17.752 41.2631 18.344C40.6231 18.936 39.8711 19.4 39.0071 19.736C38.1591 20.072 37.2551 20.24 36.2951 20.24C35.3511 20.24 34.4551 20.08 33.6071 19.76C32.7591 19.424 32.0151 18.96 31.3751 18.368C30.7351 17.776 30.2311 17.072 29.8631 16.256C29.4951 15.424 29.3111 14.52 29.3111 13.544C29.3111 12.6 29.4951 11.728 29.8631 10.928C30.2311 10.128 30.7351 9.44 31.3751 8.864C32.0151 8.288 32.7591 7.84 33.6071 7.52C34.4551 7.2 35.3511 7.04 36.2951 7.04ZM36.2951 8.432C35.8151 8.432 35.3751 8.56 34.9751 8.816C34.5751 9.056 34.2311 9.4 33.9431 9.848C33.6711 10.296 33.4551 10.84 33.2951 11.48C33.1511 12.104 33.0791 12.8 33.0791 13.568C33.0791 14.368 33.1511 15.088 33.2951 15.728C33.4551 16.368 33.6711 16.912 33.9431 17.36C34.2311 17.808 34.5671 18.16 34.9511 18.416C35.3511 18.656 35.7991 18.776 36.2951 18.776C36.7911 18.776 37.2391 18.656 37.6391 18.416C38.0551 18.16 38.4071 17.808 38.6951 17.36C38.9831 16.896 39.2071 16.344 39.3671 15.704C39.5271 15.064 39.6071 14.352 39.6071 13.568C39.6071 12.8 39.5271 12.104 39.3671 11.48C39.2071 10.856 38.9831 10.32 38.6951 9.872C38.4071 9.408 38.0551 9.056 37.6391 8.816C37.2391 8.56 36.7911 8.432 36.2951 8.432Z" fill="black"/>
</svg>
